<?xml version="1.0" encoding="UTF-8" standalone="no"?>
<svg
   xmlns:svg="http://www.w3.org/2000/svg"
   xmlns="http://www.w3.org/2000/svg"
   xmlns:xlink="http://www.w3.org/1999/xlink"
   version="1.1"
   width="186"
   height="28"
   id="svg3937">
  <path
     d="m 1.6675625,26.532 0,-24.264 c -3.8e-6,-0.1199751 0.035996,-0.227975 0.108,-0.324 0.095996,-0.095975 0.2039959,-0.1439748 0.324,-0.144 l 7.632,0 c 3.4799845,2.52e-5 6.4559815,1.236024 8.9279995,3.708 2.495977,2.448019 3.743976,5.400016 3.744001,8.856 -2.5e-5,3.504009 -1.236024,6.492006 -3.708001,8.964 C 16.223544,25.776001 13.235547,27 9.7315625,27 l -7.632,0 c -0.1200041,0 -0.228004,-0.048 -0.324,-0.144 -0.072004,-0.096 -0.1080038,-0.204 -0.108,-0.324 m 1.692,-1.08 6.084,0 c 3.1439855,2e-6 5.7839825,-1.055997 7.9199995,-3.168 2.159979,-2.135993 3.239978,-4.775991 3.24,-7.92 -2.2e-5,-3.119984 -1.080021,-5.7359816 -3.24,-7.848 C 15.227545,4.4040226 12.587548,3.3480237 9.4435625,3.348 l -6.084,0 0,22.104"
     id="D" />
  <path
     d="m 28.245687,26.532 0,-24.264 c -3e-6,-0.311975 0.155997,-0.4679748 0.468,-0.468 l 0.792,0 c 0.311995,2.52e-5 0.467995,0.156025 0.468,0.468 l 0,24.264 c -5e-6,0.312 -0.168005,0.468 -0.504,0.468 l -0.756,0 c -0.312003,0 -0.468003,-0.156 -0.468,-0.468"
     id="I" />
  <path
     d="m 34.39325,27 c -0.264,0 -0.348,-0.144 -0.252,-0.432 l 11.088,-25.056 c 0.09599,-0.1679743 0.239988,-0.2519743 0.432,-0.252 l 0.108,0 c 0.215988,2.57e-5 0.371988,0.084026 0.468,0.252 l 10.98,25.056 C 57.31323,26.856 57.20523,27 56.89325,27 l -0.936,0 c -0.240022,0 -0.408022,-0.108 -0.504,-0.324 l -2.916,-6.624 -13.752,0 -2.88,6.624 C 35.785248,26.892 35.617248,27 35.40125,27 l -1.008,0 m 5.04,-8.352 12.492,0 -6.156,-14.508 -0.072,0 -6.264,14.508"
     id="A" />
  <path
     d="m 59.857625,24.408 c -0.264002,-0.215997 -0.300002,-0.467997 -0.108,-0.756 l 0.324,-0.432 c 0.287997,-0.311996 0.551997,-0.359996 0.792,-0.144 2.063994,1.848002 4.283992,2.772001 6.66,2.772 1.631988,1e-6 3.047987,-0.467998 4.248,-1.404 1.199984,-0.959996 1.799984,-2.099995 1.8,-3.42 -1.6e-5,-1.487993 -0.564016,-2.675991 -1.692,-3.564 -1.128013,-0.88799 -2.892012,-1.739989 -5.292,-2.556 -2.400007,-0.839987 -4.164005,-1.751986 -5.292,-2.736 -1.104003,-0.983984 -1.656002,-2.4359827 -1.656,-4.356 -2e-6,-0.7199801 0.143997,-1.4279794 0.432,-2.124 0.311997,-0.719978 0.755996,-1.4039773 1.332,-2.052 0.575995,-0.647976 1.379994,-1.1759755 2.412,-1.584 1.055992,-0.4079746 2.255991,-0.6119744 3.6,-0.612 1.055989,2.56e-5 2.099988,0.1560254 3.132,0.468 1.031986,0.3120248 1.799985,0.6120245 2.304,0.9 l 0.756,0.468 c 0.287983,0.2160235 0.335983,0.4680233 0.144,0.756 -0.120016,0.1440228 -0.216016,0.3000227 -0.288,0.468 -0.216016,0.3120222 -0.480016,0.3720221 -0.792,0.18 -1.704014,-1.1279766 -3.468012,-1.691976 -5.292,-1.692 -2.016008,2.4e-5 -3.540007,0.4920235 -4.572,1.476 -1.008005,0.9840216 -1.512004,2.0880204 -1.512,3.312 -4e-6,1.4160178 0.491995,2.532017 1.476,3.348 0.983994,0.816015 2.483992,1.560014 4.5,2.232 2.759987,0.960013 4.787985,1.980012 6.084,3.06 1.319983,1.08001 1.979982,2.592008 1.98,4.536 -1.8e-5,1.776004 -0.780017,3.288003 -2.34,4.536 -1.560014,1.248 -3.396012,1.872 -5.508,1.872 -0.984009,0 -1.944008,-0.12 -2.88,-0.36 -0.936006,-0.264 -1.740006,-0.587999 -2.412,-0.972 -0.672004,-0.407999 -1.176004,-0.719998 -1.512,-0.936 -0.336003,-0.239998 -0.612003,-0.467998 -0.828,-0.684"
     id="S" />
  <path
     d="m 80.6285,26.532 0,-24.264 c -4e-6,-0.311975 0.155996,-0.4679748 0.468,-0.468 l 7.74,0 c 2.231986,2.52e-5 4.139984,0.7920244 5.724,2.376 1.607981,1.5840212 2.41198,3.4800193 2.412,5.688 -2e-5,2.256015 -0.804019,4.188013 -2.412,5.796 -1.584016,1.58401 -3.480014,2.376009 -5.688,2.376 l -6.552,0 0,8.496 c -6e-6,0.312 -0.192005,0.468 -0.576,0.468 l -0.648,0 c -0.312004,0 -0.468004,-0.156 -0.468,-0.468 m 1.692,-10.152 6.444,0 c 1.775986,1.1e-5 3.299985,-0.635989 4.572,-1.908 1.295982,-1.295986 1.943982,-2.843985 1.944,-4.644 -1.8e-5,-1.7519811 -0.648018,-3.2399796 -1.944,-4.464 -1.272015,-1.2479771 -2.808014,-1.8719765 -4.608,-1.872 l -6.408,0 0,12.888"
     id="P" />
  <path
     d="m 103.9835,23.616 c -2.52,-2.519994 -3.78,-5.579991 -3.78,-9.18 0,-3.599984 1.26,-6.6599808 3.78,-9.18 2.51999,-2.5439757 5.57999,-3.8159744 9.18,-3.816 3.62398,2.56e-5 6.69598,1.2720243 9.216,3.816 2.51997,2.5200192 3.77997,5.580016 3.78,9.18 -3e-5,3.624009 -1.26003,6.684006 -3.78,9.18 -2.52002,2.496001 -5.59202,3.744 -9.216,3.744 -3.60001,0 -6.66001,-1.247999 -9.18,-3.744 m 1.116,-17.244 c -2.208,2.2320184 -3.312,4.920016 -3.312,8.064 0,3.144009 1.104,5.820007 3.312,8.028 2.23199,2.208002 4.91999,3.312001 8.064,3.312 3.14398,1e-6 5.83198,-1.103998 8.064,-3.312 2.23197,-2.207993 3.34797,-4.883991 3.348,-8.028 -3e-5,-3.143984 -1.11603,-5.8319816 -3.348,-8.064 -2.23202,-2.2319771 -4.92002,-3.347976 -8.064,-3.348 -3.14401,2.4e-5 -5.83201,1.1160229 -8.064,3.348"
     id="O" />
  <path
     d="m 132.02694,26.532 0,-24.264 c -1e-5,-0.311975 0.15599,-0.4679748 0.468,-0.468 l 8.928,0 c 2.20798,2.52e-5 4.09198,0.7440245 5.652,2.232 1.58398,1.4640215 2.37598,3.2880197 2.376,5.472 -2e-5,1.776016 -0.55202,3.348014 -1.656,4.716 -1.10402,1.368011 -2.53202,2.30401 -4.284,2.808 l 5.256,9.324 c 0.096,0.144001 0.11998,0.288 0.072,0.432 -0.048,0.144 -0.15602,0.216 -0.324,0.216 l -1.116,0 c -0.21602,0 -0.38402,-0.108 -0.504,-0.324 l -5.22,-9.432 c -0.31202,0.02401 -0.75602,0.03601 -1.332,0.036 l -6.624,0 0,9.252 c -1e-5,0.312 -0.19201,0.468 -0.576,0.468 l -0.648,0 c -0.31201,0 -0.46801,-0.156 -0.468,-0.468 m 1.728,-10.764 7.596,0 c 1.75198,1.1e-5 3.25198,-0.599988 4.5,-1.8 1.24798,-1.223986 1.87198,-2.711984 1.872,-4.464 -2e-5,-1.7039808 -0.63602,-3.1319794 -1.908,-4.284 -1.24802,-1.175977 -2.74802,-1.7639765 -4.5,-1.764 l -7.56,0 0,12.312"
     id="R" />
  <use
     transform="translate(117.84376,0)"
     id="A2"
     xlink:href="#A" />
  <path
     d="m 180.10606,12.24 c -0.312,1.5e-5 -0.468,-0.155985 -0.468,-0.468 l 0.036,-3.708 -3.168,1.98 c -0.24,0.168017 -0.444,0.120017 -0.612,-0.144 l -0.18,-0.288 c -0.168,-0.2399824 -0.12,-0.4439822 0.144,-0.612 l 3.276,-1.98 -3.312,-1.98 c -0.24,-0.1439779 -0.288,-0.3479777 -0.144,-0.612 l 0.216,-0.36 c 0.12,-0.1919769 0.312,-0.2159769 0.576,-0.072 l 3.204,1.98 -0.036,-3.708 c 0,-0.311975 0.156,-0.4679748 0.468,-0.468 l 0.288,0 c 0.312,2.52e-5 0.468,0.156025 0.468,0.468 l -0.036,3.708 3.168,-2.016 c 0.21599,-0.1199768 0.41999,-0.071977 0.612,0.144 l 0.18,0.288 c 0.11999,0.2640223 0.072,0.4680221 -0.144,0.612 l -3.312,2.016 3.348,2.016 c 0.23999,0.1440178 0.28799,0.3360176 0.144,0.576 l -0.18,0.324 c -0.16801,0.264017 -0.38401,0.312017 -0.648,0.144 l -3.168,-2.016 0.036,3.708 c 0,0.312015 -0.156,0.468015 -0.468,0.468 l -0.288,0"
     id="star" />
</svg>