<?xml version="1.0" encoding="UTF-8"?>
<svg width="512px" height="512px" viewBox="0 0 512 512" version="1.1" xmlns="http://www.w3.org/2000/svg" xmlns:xlink="http://www.w3.org/1999/xlink">
    <title>Kbin</title>
    <g id="All-Fediverse-Symbols" stroke="none" stroke-width="1" fill="none" fill-rule="evenodd">
        <g id="Kbin" fill="#000000">
            <path d="M234.120714,314.770034 L323.051992,473.620362 L390.89007,473.620354 C351.721748,497.95004 305.501646,512 256,512 C206.498354,512 160.278252,497.95004 121.10993,473.620354 L234.120714,473.620362 L234.120714,314.770034 Z M67.8342141,82.4191901 L67.8342141,429.58081 C25.7250479,383.956233 0,322.98232 0,256 C0,189.01768 25.7250479,128.043767 67.8342141,82.4191901 Z M466.821721,110.733835 C495.314048,152.005625 512,202.054206 512,256 C512,308.504069 496.194009,357.31645 469.080741,397.93843 L378.423491,240.462402 Z M256,0 C308.859694,0 357.977522,16.0208335 398.762735,43.4717524 L323.051992,43.47782 L234.120714,209.602028 L234.120714,43.47782 L113.237265,43.4717524 C154.022478,16.0208335 203.140306,0 256,0 Z"></path>
        </g>
    </g>
</svg>