<svg id="svg10" version="1.1" sodipodi:docname="title_float.svg" inkscape:version="1.2.2 (b0a8486541, 2022-12-01)" xmlns:inkscape="http://www.inkscape.org/namespaces/inkscape" xmlns:sodipodi="http://sodipodi.sourceforge.net/DTD/sodipodi-0.dtd" xmlns="http://www.w3.org/2000/svg" xmlns:svg="http://www.w3.org/2000/svg" xmlns:rdf="http://www.w3.org/1999/02/22-rdf-syntax-ns#" xmlns:cc="http://creativecommons.org/ns#" xmlns:dc="http://purl.org/dc/elements/1.1/" viewBox="1.95 0.97 167.97 103.23">
  <sodipodi:namedview id="namedview21" pagecolor="#ffffff" bordercolor="#000000" borderopacity="0.25" inkscape:showpageshadow="2" inkscape:pageopacity="0.0" inkscape:pagecheckerboard="0" inkscape:deskcolor="#d1d1d1" showgrid="false" inkscape:zoom="1.1507704" inkscape:cx="260.69492" inkscape:cy="102.54" inkscape:window-width="1600" inkscape:window-height="931" inkscape:window-x="0" inkscape:window-y="0" inkscape:window-maximized="1" inkscape:current-layer="svg10"/>
  <metadata id="metadata16">
    <rdf:RDF>
      <cc:Work rdf:about="">
        <dc:format>image/svg+xml</dc:format>
        <dc:type rdf:resource="http://purl.org/dc/dcmitype/StillImage"/>
        <dc:title/>
      </cc:Work>
    </rdf:RDF>
  </metadata>
  <linearGradient id="myGradient" gradientTransform="rotate(90)">
    <stop offset="5%" stop-color="#9ccfd8" id="stop5" style="--darkreader-inline-stopcolor: #265760;" data-darkreader-inline-stopcolor=""/>
    <stop offset="95%" stop-color="#31748f" id="stop7" style="--darkreader-inline-stopcolor: #275d72;" data-darkreader-inline-stopcolor=""/>
  </linearGradient>
  <defs id="defs14"/>
  <g id="g8" fill="url('#myGradient')" word-spacing="0" letter-spacing="0" font-family="OTADESIGN Rounded" font-weight="400">
    <g id="g17">
      <g transform="matrix(.26953 0 0 .26953 -55.341 -52.023)" id="g11"/>
      <g transform="matrix(3.6954 0 0 3.6954 208.34 -284.25)" clip-rule="evenodd" fill-rule="evenodd" stroke-linejoin="round" stroke-miterlimit="2" id="g15">
        <path d="m -41.8312,77.19 c -3.8683,0 -7.1782,1.3578 -9.9311,4.0734 -2.716,2.7525 -4.0734,6.0628 -4.0734,9.9311 5.0539,0.04979 6.082,0.01348 8.7525,0.0011 0.0024,-4.51e-4 0.0044,-6.05e-4 0.0069,-0.0011 0.03779,-2.8423 2.2103,-4.9346 5.2451,-5.2451 1.4137,0 2.6227,0.52089 3.6268,1.5629 0.855,0.8548 1.897,1.2822 3.1257,1.2822 1.2258,0 2.2676,-0.42741 3.1236,-1.2822 0.85499,-0.85567 1.2833,-1.8976 1.2833,-3.1257 0,-1.2264 -0.42828,-2.2673 -1.2833,-3.1231 -2.7528,-2.7156 -6.0446,-4.0734 -9.8761,-4.0734 z m -5.252,14.006 c -3.4453,-5.5934 -3.4667,0.08539 -8.7525,-0.0011 0,3.8683 1.3584,7.0406 4.0744,9.7931 2.7528,2.7156 6.0623,4.0734 9.9305,4.0734 3.8315,0 7.1238,-1.3578 9.8766,-4.0734 0.85499,-0.85577 1.2827,-1.8967 1.2827,-3.1231 0,-1.2282 -0.42775,-2.2701 -1.2827,-3.1257 -0.85596,-0.8548 -1.8978,-1.2822 -3.1236,-1.2822 -1.2287,0 -2.2707,0.42741 -3.1257,1.2822 -1.0041,1.042 -2.2136,1.5623 -3.6273,1.5623 -3.0348,-0.31051 -5.2084,-2.2633 -5.2462,-5.1056 -0.0024,1.1e-5 -0.0039,-1.2e-5 -0.0063,0 z m 26.154,-7.0965 c -2.8795,0 -5.3538,1.0204 -7.4227,3.0612 -0.64257,0.64316 -0.96404,1.4255 -0.96404,2.3472 0,0.92303 0.32146,1.7062 0.96404,2.3493 0.64331,0.64243 1.4265,0.96351 2.3477,0.96351 0.92347,0 1.7068,-0.32108 2.3493,-0.96351 0.75465,-0.78308 1.6632,-1.1744 2.7256,-1.1744 1.0894,0 2.0261,0.37695 2.8091,1.1316 0.75536,0.78309 1.1332,1.7201 1.1332,2.8102 0,1.0617 -0.39242,1.9703 -1.1754,2.7256 -0.39149,0.4193 -0.86676,0.69884 -1.4249,0.83878 -0.14116,0.02773 -0.25248,0.01369 -0.33614,-0.04175 -0.05605,-0.08456 -0.02751,-0.16827 0.08456,-0.25211 l 0.83825,-0.88053 c 0.64329,-0.64315 0.9651,-1.412 0.9651,-2.306 0,-0.92236 -0.27937,-1.6632 -0.83825,-2.2225 -0.55888,-0.55932 -1.3422,-0.83878 -2.3493,-0.83878 -0.6986,0 -1.397,0.34902 -2.0956,1.0475 l -4.8651,4.8223 c -0.64328,0.6438 -0.96457,1.4271 -0.96457,2.3488 0,0.92302 0.32128,1.7053 0.96457,2.3477 1.9568,1.9293 4.3751,2.8942 7.2546,2.8942 2.9072,0 5.3945,-1.0343 7.4634,-3.103 2.0412,-2.0409 3.0618,-4.501 3.0618,-7.3804 0,-2.9072 -1.0206,-5.3952 -3.0618,-7.4639 -2.0689,-2.0409 -4.5562,-3.0612 -7.4634,-3.0612 z" clip-rule="evenodd" fill-rule="nonzero" stroke-miterlimit="2" stroke-width="0" id="path13" sodipodi:nodetypes="cccccccscsccccccscscscccccccscscscscccccscsccscscsccc"/>
      </g>
    </g>
  </g>
</svg>