<?xml version="1.0" encoding="UTF-8" standalone="no"?>
<svg
   xmlns:dc="http://purl.org/dc/elements/1.1/"
   xmlns:cc="http://creativecommons.org/ns#"
   xmlns:rdf="http://www.w3.org/1999/02/22-rdf-syntax-ns#"
   xmlns:svg="http://www.w3.org/2000/svg"
   xmlns="http://www.w3.org/2000/svg"
   width="614.71"
   height="205.08"
   viewBox="0 0 162.642 54.261"
   version="1.1"
   id="svg10">
  <metadata
     id="metadata16">
    <rdf:RDF>
      <cc:Work
         rdf:about="">
        <dc:format>image/svg+xml</dc:format>
        <dc:type
           rdf:resource="http://purl.org/dc/dcmitype/StillImage" />
        <dc:title></dc:title>
      </cc:Work>
    </rdf:RDF>
  </metadata>
  <defs
     id="defs14" />
  <path
     id="path2"
     transform="matrix(0.26458455,0,0,0.26458455,-3.8727436e-4,0)"
     d="M 67.84375 50 C 65.764237 49.991628 63.700508 50.352577 61.748047 51.068359 C 58.289795 52.285362 55.438769 54.474842 53.205078 57.626953 C 51.069655 60.677018 50 64.081184 50 67.841797 L 50 134.64453 C 50 139.52388 51.731075 143.74622 55.185547 147.30273 C 58.745845 150.76099 62.968182 152.48828 67.84375 152.48828 C 72.828924 152.48828 77.047608 150.76111 80.505859 147.30664 C 84.066158 143.74634 85.841797 139.52388 85.841797 134.64453 L 85.841797 122.49805 C 85.879592 119.86751 88.588975 120.55916 89.960938 122.49805 C 92.523445 126.93897 97.962416 130.7551 104.29688 130.73242 L 104.29688 130.73633 C 110.62755 130.70987 115.88889 127.58149 118.63281 122.49805 C 119.67218 121.27349 122.60194 119.18342 122.9043 122.49805 L 122.9043 134.64453 C 122.9043 139.52388 124.63147 143.74622 128.08594 147.30273 C 131.65002 150.76099 135.86675 152.48828 140.74609 152.48828 C 145.72749 152.48828 149.94995 150.76111 153.4082 147.30664 C 156.9685 143.74634 158.74414 139.52388 158.74414 134.64453 L 158.74414 67.841797 C 158.74414 64.081184 157.62627 60.677018 155.39258 57.626953 C 153.25338 54.471062 150.45643 52.285362 147.00195 51.068359 C 144.96858 50.354032 142.93572 50 140.90234 50 C 135.41072 50 130.78392 52.135403 127.01953 56.40625 L 108.91211 77.597656 C 108.5077 77.903797 107.15784 80.234375 104.29297 80.234375 C 101.43566 80.234375 100.24217 77.903923 99.833984 77.601562 L 81.570312 56.40625 C 77.911747 52.135403 73.335378 50 67.84375 50 z M 180.68555 50.001953 C 176.4147 50.001953 172.75388 51.527366 169.70508 54.576172 C 166.75706 57.52419 165.2832 61.13345 165.2832 65.404297 C 165.2832 69.675143 166.75706 73.335959 169.70508 76.384766 C 172.75388 79.332784 176.4147 80.806641 180.68555 80.806641 C 184.95639 80.806641 188.61665 79.332784 191.66797 76.384766 C 194.71677 73.335959 196.24023 69.675143 196.24023 65.404297 C 196.24023 61.13345 194.71677 57.52419 191.66797 54.576172 C 188.61665 51.527366 184.95639 50.001953 180.68555 50.001953 z M 351.25781 51.068359 C 346.98949 51.068359 343.33005 52.593773 340.28125 55.642578 C 337.33323 58.590596 335.85938 62.19847 335.85938 66.466797 L 335.85938 137.50977 C 335.85937 141.78061 337.33323 145.44143 340.28125 148.49023 C 343.33005 151.43825 346.98949 152.91211 351.25781 152.91211 C 355.52866 152.91211 359.18752 151.43825 362.23633 148.49023 C 365.28513 145.44143 366.81055 141.782 366.81055 137.51367 C 366.81055 134.46487 367.21601 132.94141 368.02734 132.94141 C 368.43553 132.94141 368.84238 133.09217 369.24805 133.39453 L 384.49414 148.18359 C 387.54295 151.13161 391.15082 152.60547 395.31836 152.60547 C 399.68747 152.60547 403.3469 151.08005 406.29492 148.03125 C 409.24294 144.87914 410.7168 141.27126 410.7168 137.20703 C 410.7168 132.8354 409.14178 129.12498 405.99219 126.07617 C 399.0782 119.26549 395.47033 115.76017 395.16797 115.55859 C 393.84514 114.23577 393.89474 113.11777 395.31836 112.20312 L 395.625 112.05078 L 395.625 111.90039 L 405.22852 105.80078 C 409.80172 102.75198 412.08984 98.432386 412.08984 92.84375 C 412.08984 89.794945 411.27558 86.948392 409.65039 84.302734 C 406.60159 79.729527 402.28256 77.441406 396.69141 77.441406 C 393.6426 77.441406 390.79743 78.25567 388.1543 79.880859 C 376.36474 87.709485 370.26561 91.725594 369.85742 91.929688 C 369.14687 92.436142 368.48671 92.535349 367.87695 92.230469 C 367.16389 91.925588 366.80664 91.265428 366.80664 90.25 L 366.80664 66.466797 C 366.80664 62.19847 365.28318 58.590596 362.23438 55.642578 C 359.18557 52.593773 355.52614 51.068359 351.25781 51.068359 z M 454.125 77.189453 C 443.55497 77.189453 434.50951 80.949478 426.98828 88.470703 C 419.56784 95.891141 415.85742 104.83544 415.85742 115.30469 C 415.85742 125.87472 419.56784 134.92018 426.98828 142.44141 C 434.50951 149.86184 443.55497 153.57227 454.125 153.57227 C 464.59424 153.57227 473.5901 149.86184 481.11133 142.44141 C 483.44959 140.10315 484.61719 137.25937 484.61719 133.9082 C 484.61719 130.552 483.44959 127.70544 481.11133 125.36719 C 478.77307 123.03145 475.92734 121.86328 472.57617 121.86328 C 469.21997 121.86328 466.37341 123.03145 464.03516 125.36719 C 461.29123 128.21442 457.98766 129.63672 454.125 129.63672 C 450.16407 129.63672 446.75934 128.26541 443.91211 125.52148 C 441.16567 122.67425 439.79297 119.26813 439.79297 115.30469 C 439.79297 111.44455 441.21722 108.14098 444.06445 105.39453 C 445.48807 103.87013 447.21524 102.85468 449.24609 102.3457 C 449.75759 102.24492 450.16444 102.29452 450.4668 102.49609 C 450.67089 102.80349 450.56834 103.10918 450.16016 103.41406 L 447.11328 106.61523 C 444.77502 108.95349 443.60547 111.74962 443.60547 115 C 443.60547 118.35369 444.62149 121.0467 446.65234 123.08008 C 448.68572 125.11345 451.53227 126.12891 455.19336 126.12891 C 457.73319 126.12891 460.27462 124.86014 462.81445 122.32031 L 480.50195 104.78711 C 482.84021 102.44633 484.00977 99.599213 484.00977 96.248047 C 484.00977 92.891842 482.84021 90.046675 480.50195 87.710938 C 473.3864 80.696167 464.59424 77.189453 454.125 77.189453 z M 232.29883 77.435547 C 222.7659 77.309908 215.32879 79.819576 209.99023 84.966797 C 205.31624 89.439217 202.98047 95.080514 202.98047 101.88867 C 203.08126 110.42785 206.38483 116.83128 212.89062 121.09961 C 214.82069 122.41992 217.20802 123.48693 220.05273 124.30078 C 221.47887 124.80976 223.86758 125.41836 227.21875 126.12891 C 230.16677 126.83945 233.36918 127.49961 236.82617 128.10938 C 237.53672 128.31347 237.84102 128.67071 237.74023 129.17969 C 237.74023 129.78945 237.48554 130.09375 236.97656 130.09375 C 235.65625 130.19454 234.43709 130.24609 233.31836 130.24609 C 224.98328 129.33145 219.3406 128.56875 216.39258 127.95898 C 215.58124 127.75489 214.71933 127.65234 213.80469 127.65234 C 210.65258 127.65234 207.90662 128.8219 205.56836 131.16016 C 203.33341 133.39763 202.2168 136.1422 202.2168 139.39258 C 202.2168 142.03572 203.02911 144.42443 204.6543 146.55859 C 206.38279 148.69276 208.62074 150.06407 211.36719 150.67383 C 219.90384 152.60642 227.62621 153.57227 234.53516 153.57227 C 243.98897 153.57227 251.35826 151.0314 256.64453 145.94922 C 261.21774 141.57759 263.50586 135.93685 263.50586 129.02539 C 263.50586 120.48874 260.25189 114.0853 253.74609 109.81445 C 250.2891 107.5795 245.51167 105.95293 239.41406 104.9375 C 235.7555 104.22695 232.70662 103.56541 230.26758 102.95312 L 230.26758 102.95703 C 229.55451 102.75294 229.14766 102.34609 229.04688 101.73633 C 229.04688 101.22735 229.45372 100.92305 230.26758 100.82227 C 231.18222 100.72148 232.15002 100.72148 233.16797 100.82227 C 241.60384 101.63612 247.29417 102.34727 250.24219 102.95703 C 251.05352 103.15861 251.86583 103.25977 252.67969 103.25977 C 255.93259 103.25977 258.67716 102.14315 260.91211 99.908203 C 263.25037 97.569946 264.41992 94.825373 264.41992 91.675781 C 264.41992 88.929337 263.55467 86.491019 261.82617 84.359375 C 260.09768 82.222692 257.91406 80.848042 255.27344 80.238281 C 248.25867 78.713879 241.24467 77.799021 234.23242 77.494141 C 233.57825 77.46233 232.93436 77.443923 232.29883 77.435547 z M 298.64453 77.435547 C 289.1116 77.309908 281.6745 79.819576 276.33594 84.966797 C 271.66194 89.439217 269.32617 95.080514 269.32617 101.88867 C 269.42696 110.42785 272.73053 116.83128 279.23633 121.09961 C 281.1664 122.41992 283.55511 123.48693 286.40234 124.30078 C 287.82596 124.80976 290.21272 125.41836 293.56641 126.12891 C 296.51442 126.83945 299.7174 127.49961 303.17188 128.10938 C 303.88242 128.31347 304.18672 128.67071 304.08594 129.17969 C 304.08594 129.78945 303.83124 130.09375 303.32227 130.09375 C 302.00196 130.19454 300.7828 130.24609 299.66406 130.24609 C 291.3315 129.33145 285.69021 128.56875 282.74219 127.95898 C 281.92833 127.75489 281.06503 127.65234 280.15039 127.65234 C 276.99828 127.65234 274.25371 128.8219 271.91797 131.16016 C 269.6805 133.39763 268.5625 136.1422 268.5625 139.39258 C 268.5625 142.03572 269.3762 144.42443 271.00391 146.55859 C 272.72988 148.69276 274.96645 150.06407 277.71289 150.67383 C 286.24954 152.60642 293.9733 153.57227 300.88477 153.57227 C 310.33606 153.57227 317.70396 151.0314 322.99023 145.94922 C 327.56344 141.57759 329.85156 135.93685 329.85156 129.02539 C 329.85156 120.48874 326.59898 114.0853 320.0957 109.81445 C 316.63871 107.5795 311.86128 105.95293 305.76367 104.9375 C 302.10511 104.22695 299.05623 103.56541 296.61719 102.95312 L 296.61328 102.95703 C 295.90273 102.75294 295.49727 102.34609 295.39648 101.73633 C 295.39648 101.22735 295.80195 100.92305 296.61328 100.82227 C 297.53044 100.72148 298.49629 100.72148 299.51172 100.82227 C 307.94759 101.63612 313.63987 102.34727 316.58789 102.95703 C 317.40175 103.15861 318.21406 103.25977 319.02539 103.25977 C 322.27829 103.25977 325.02425 102.14315 327.26172 99.908203 C 329.59746 97.569946 330.76562 94.825373 330.76562 91.675781 C 330.76562 88.929337 329.90176 86.491019 328.17578 84.359375 C 326.44729 82.222692 324.26228 80.848042 321.61914 80.238281 C 314.60689 78.713879 307.5929 77.799021 300.57812 77.494141 C 299.92395 77.46233 299.28006 77.443923 298.64453 77.435547 z M 505.40039 78.511719 C 501.13206 78.511719 497.47459 80.037133 494.42578 83.085938 C 491.47776 86.031436 490.00391 89.63931 490.00391 93.910156 L 490.00391 115.10156 C 490.00391 125.36671 493.66138 134.15748 500.97852 141.47461 C 508.29817 148.79174 517.09227 152.45117 527.35742 152.45117 C 529.3908 152.45117 531.2715 152.29845 533 151.99609 C 534.01543 151.792 534.72519 151.99571 535.13086 152.60547 C 535.43574 153.01114 535.33458 153.57014 534.82812 154.2832 C 533.5053 156.11249 530.70973 157.02734 526.44141 157.02734 C 524.81622 157.02734 522.73376 156.6205 520.19141 155.80664 C 517.65158 154.99279 515.66971 154.58594 514.24609 154.58594 C 508.24927 154.58594 504.03084 157.3319 501.5918 162.82227 C 500.67716 164.65155 500.21875 166.58186 500.21875 168.61523 C 500.21875 174.61206 502.91372 178.83049 508.30078 181.26953 C 513.68784 183.80936 519.73404 185.07812 526.44141 185.07812 C 538.02938 185.07813 547.227 181.67396 554.03516 174.86328 C 560.94914 168.05512 564.40625 158.9581 564.40625 147.57422 L 564.40625 119.67383 C 564.60782 118.04612 564.70898 116.52266 564.70898 115.10156 L 564.70898 93.910156 C 564.70898 89.641829 563.18552 86.033955 560.13672 83.085938 C 557.1887 80.037133 553.58083 78.511719 549.3125 78.511719 C 545.04165 78.511719 541.38084 80.037133 538.33203 83.085938 C 535.28323 86.031436 533.75977 89.63931 533.75977 93.910156 L 533.75977 115.10156 C 533.75977 116.82754 533.14921 118.351 531.92969 119.67383 C 530.71017 120.89335 529.1867 121.50391 527.35742 121.50391 C 525.62893 121.50391 524.10351 120.89335 522.7832 119.67383 C 521.56368 118.351 520.95312 116.82754 520.95312 115.10156 L 520.95312 93.910156 C 520.95312 89.641829 519.42966 86.033955 516.38086 83.085938 C 513.32953 80.037133 509.66872 78.511719 505.40039 78.511719 z M 180.83594 83.859375 C 176.56509 83.859375 172.90427 85.384788 169.85547 88.433594 C 166.80666 91.484917 165.2832 95.145169 165.2832 99.416016 L 165.2832 137.08594 C 165.2832 141.35678 166.80666 145.0176 169.85547 148.06641 C 172.90679 151.01442 176.56761 152.48828 180.83594 152.48828 C 185.1093 152.48828 188.71995 151.01442 191.66797 148.06641 C 194.71677 145.0176 196.24023 141.35678 196.24023 137.08594 L 196.24023 99.416016 C 196.24023 95.142648 194.71677 91.4824 191.66797 88.433594 C 188.71743 85.384788 185.10678 83.859375 180.83594 83.859375 z "
     style="font-weight:400;font-size:141.03399658px;line-height:476.69509888px;font-family:'OTADESIGN Rounded';-inkscape-font-specification:'OTADESIGN Rounded';letter-spacing:0;word-spacing:0;fill:#212d3a;stroke-width:3.77951026" />
</svg>
