<?xml version="1.0" encoding="UTF-8"?>
<svg width="512px" height="512px" viewBox="0 0 512 512" version="1.1" xmlns="http://www.w3.org/2000/svg" xmlns:xlink="http://www.w3.org/1999/xlink">
    <title>Owncast logo</title>
    <defs>
        <linearGradient x1="0%" y1="47.9462821%" x2="100%" y2="52.1612649%" id="linearGradient-1">
            <stop stop-color="#1F2022" offset="0%"></stop>
            <stop stop-color="#635E69" offset="100%"></stop>
        </linearGradient>
        <linearGradient x1="0%" y1="0%" x2="0%" y2="100%" id="linearGradient-2">
            <stop stop-color="#B63FFF" offset="0%"></stop>
            <stop stop-color="#2087E2" offset="100%"></stop>
        </linearGradient>
        <linearGradient x1="4.55777778%" y1="0%" x2="95.4422222%" y2="100%" id="linearGradient-3">
            <stop stop-color="#100F0F" offset="0%"></stop>
            <stop stop-color="#49261F" offset="100%"></stop>
        </linearGradient>
        <linearGradient x1="68.2994072%" y1="100%" x2="37.7475872%" y2="0%" id="linearGradient-4">
            <stop stop-color="#222020" offset="0%"></stop>
            <stop stop-color="#49261F" offset="100%"></stop>
        </linearGradient>
        <linearGradient x1="0%" y1="0%" x2="0%" y2="100%" id="linearGradient-5">
            <stop stop-color="#49261F" offset="0%"></stop>
            <stop stop-color="#1E1C1C" offset="100%"></stop>
        </linearGradient>
        <linearGradient x1="0%" y1="0%" x2="0%" y2="100%" id="linearGradient-6">
            <stop stop-color="#FFFFFF" stop-opacity="0.5" offset="0%"></stop>
            <stop stop-color="#FFFFFF" stop-opacity="0.2" offset="100%"></stop>
        </linearGradient>
        <linearGradient x1="0%" y1="0%" x2="0%" y2="100%" id="linearGradient-7">
            <stop stop-color="#FFFFFF" stop-opacity="0.5" offset="0%"></stop>
            <stop stop-color="#FFFFFF" stop-opacity="0.2" offset="100%"></stop>
        </linearGradient>
    </defs>
    <g id="All-Fediverse-Symbols" stroke="none" stroke-width="1" fill="none" fill-rule="evenodd">
        <g id="Owncast-logo">
            <g id="Group" transform="translate(241.000000, 300.000000)" fill="url(#linearGradient-1)" fill-rule="nonzero">
                <path d="M245.829805,85.5517285 C251.12102,71.1742456 251.377047,58.0804666 246.597884,46.2703913 C242.160091,35.3161187 233.625872,26.0734511 220.995229,18.5423886 C209.218007,11.6959682 194.965863,6.73231341 178.238794,3.65142422 C163.047885,0.912856056 146.491502,-0.285267518 128.569643,0.0570535035 C111.330521,0.570535035 94.6034531,2.45330065 78.388438,5.70535035 C62.8561604,8.95740005 49.2014108,13.0652523 37.4241893,18.0289071 C25.8176521,22.9925619 16.7713805,28.384118 10.2853745,34.2035754 C3.79936842,40.3653537 0.385681028,46.6982926 0.0443122883,53.202392 C-0.467740821,60.904615 3.45799968,69.2058998 11.8215338,78.1062463 C19.5023304,86.3219508 30.2554457,94.3664948 44.0808797,102.239878 C57.9063136,110.113262 73.1825647,116.874102 89.909633,122.522399 C107.831492,128.513017 125.497324,132.364128 142.90713,134.075733 C154.172298,135.102696 164.669387,135.273857 174.398396,134.589215 C184.980827,133.562252 194.795178,131.337165 203.84145,127.913955 C213.570459,124.148424 221.848651,118.928028 228.676026,112.252768 C236.356822,104.892866 242.074749,95.9925197 245.829805,85.5517285 M138.810705,45.2434283 C144.613973,48.3243175 148.881083,52.0898487 151.612033,56.540022 C154.342983,61.5036768 154.940378,67.1519736 153.404219,73.4849125 C152.209428,77.9350858 150.246558,81.7861973 147.515608,85.038247 C144.955342,87.9479757 141.541655,90.2586425 137.274546,91.9702477 C133.690174,93.5106922 129.337722,94.6232356 124.217191,95.3078776 C119.267345,95.8213591 114.317498,95.9069394 109.367651,95.5646184 C100.662748,95.0511368 91.1044236,93.3395317 80.692677,90.4298031 C71.6464054,87.6912349 62.9415025,84.2680247 54.5779684,80.1601724 C46.8971718,76.3946412 40.5818501,72.4579495 35.6320034,68.3500972 C30.852841,64.0710844 28.548602,60.3055532 28.7192864,57.0535035 C29.0606551,54.3149353 31.0235254,51.6619474 34.6078972,49.0945398 C38.1922689,46.6982926 43.1421157,44.5587862 49.4574373,42.6760206 C55.772759,40.6220945 62.7708182,39.0816499 70.4516148,38.0546868 C79.1565177,37.0277238 87.4347096,36.5142422 95.2861906,36.5142422 C103.991093,36.6854028 111.842574,37.3700448 118.840634,38.5681684 C126.350746,40.108613 133.007436,42.3336996 138.810705,45.2434283 Z" id="Shape"></path>
            </g>
            <g id="Group" transform="translate(178.000000, 0.000000)" fill="url(#linearGradient-2)" fill-rule="nonzero">
                <path d="M180.930331,76.8108822 C180.249123,58.3639725 175.650971,42.9915478 167.135874,30.693608 C158.109871,17.2000352 144.826319,7.97658038 127.285219,3.02324353 C123.368275,1.82761049 119.195877,0.973586899 114.768027,0.461172742 C110.851082,-0.0512414157 106.848986,-0.136643775 102.76174,0.204965663 C99.0150971,0.204965663 95.2684544,0.631977461 91.5218116,1.48600106 C88.2860748,2.16921993 84.709734,3.27945061 80.7927893,4.81669308 C68.1904456,9.77002993 56.7802156,18.4810706 46.5620991,30.9498151 C37.0251903,42.2229266 28.8506971,56.2289135 22.0386195,72.967776 C16.0780515,87.1445677 11.3095971,102.687797 7.73325635,119.597464 C4.32721752,135.482303 2.02814131,151.623349 0.836027714,168.020602 C-0.185783936,182.880613 -0.270934907,197.142807 0.580574801,210.807184 C1.60238645,224.300757 3.47570781,236.513295 6.20053888,247.444797 C11.650201,269.820215 19.9949962,283.569995 31.2349243,288.694136 C32.256736,289.20655 33.2785476,289.633562 34.3003593,289.975172 L40.942135,291 C41.7936447,291 43.0709092,290.914598 44.7739287,290.743793 C51.9266102,290.060574 60.0159524,287.071491 69.0419554,281.776545 C77.7273544,276.481599 86.8385083,269.222398 96.375417,259.998943 C106.593533,250.09227 116.471046,238.562951 126.007955,225.410988 C136.055769,211.74661 144.996621,197.313612 152.830511,182.111992 C162.026815,164.177496 169.094346,146.58461 174.033102,129.333333 C179.142161,110.37401 181.441237,92.8665258 180.930331,76.8108822 M83.6027714,118.316429 C85.3057908,118.658038 86.7533573,119.08505 87.9454709,119.597464 C101.739928,124.379996 108.807459,135.396901 109.148063,152.648177 C109.318365,166.824969 104.975665,183.13682 96.1199641,201.58373 C88.7969806,216.956154 80.0264306,230.449727 69.8083141,242.064448 C60.2714054,252.99595 52.2672141,258.80331 45.7957403,259.486529 L44.5184758,259.742736 L42.2193995,259.486529 L40.942135,258.974115 C36.1736806,256.753654 32.8527927,249.494453 30.9794714,237.196513 C29.10615,224.727769 29.191301,210.465575 31.2349243,194.409931 C33.4488495,176.475436 37.6212471,160.761402 43.752117,147.267829 C51.0751005,131.212185 60.1011034,121.732523 70.8301257,118.828843 C72.7034471,118.316429 74.0658626,118.060222 74.9173723,118.060222 C76.2797879,117.889417 77.6422034,117.804015 79.0046189,117.804015 C80.3670345,117.804015 81.8997519,117.97482 83.6027714,118.316429 Z" id="Shape"></path>
            </g>
            <g id="Group" transform="translate(21.000000, 161.000000)" fill="url(#linearGradient-3)" fill-rule="nonzero">
                <path d="M10.1915485,10.5480644 C8.14220391,13.2762726 6.4344167,16.2602503 5.06818694,19.5 C3.53117846,23.4217969 2.42111678,27.4288526 1.7380019,31.5211649 C-1.84835123,48.2314401 0.115604057,64.4301763 7.62986774,80.1173734 C13.7779017,93.0763623 23.6830674,105.268043 37.3453651,116.692414 C49.4706542,126.752682 63.1329518,134.937307 78.3322579,141.246288 C93.7023427,147.55527 107.108472,150.453991 118.550647,149.942452 C120.77077,149.942452 123.161672,149.686682 125.723353,149.175143 C128.285034,148.663604 130.419768,147.981552 132.127555,147.128987 C133.835342,146.276422 135.45774,145.168088 136.994748,143.803983 C138.531757,142.439879 139.727208,140.905262 140.581101,139.200132 C144.679791,131.356534 143.569729,119.25011 137.250916,102.880861 C130.761325,87.0231504 120.941549,70.7391577 107.791587,54.0288825 C94.1292895,36.6365553 79.8692664,22.9102578 65.0115177,12.8499901 C48.958318,2.10767033 35.3814098,-1.89938545 24.280793,0.828822743 C21.5483334,1.51087479 18.9866526,2.70446588 16.5957506,4.409596 C14.2048485,5.94421311 12.0701145,7.99036925 10.1915485,10.5480644 M48.1044244,61.4461986 C48.958318,59.9115814 49.8122116,58.7179904 50.6661052,57.8654253 C51.5199988,57.0128602 52.5446712,56.2455517 53.7401222,55.5634996 C55.106352,55.0519606 56.301803,54.7109346 57.3264753,54.5404216 C62.7913944,53.5173435 69.7079325,55.9045257 78.0760898,61.7019681 C85.5903535,66.6468454 93.1046172,73.6378789 100.618881,82.6750686 C107.45003,90.8596932 112.914949,98.8738047 117.013638,106.717403 C120.941549,114.731515 122.137,120.358444 120.599991,123.598191 C120.258434,124.280244 119.831487,124.791783 119.319151,125.132809 C118.806815,125.814861 118.209089,126.241143 117.525974,126.411656 C117.184417,126.752682 116.501302,127.008452 115.47663,127.178965 L112.658781,127.690504 C107.193862,128.03153 100.106545,126.496913 91.39683,123.086652 C82.857894,119.676392 74.8312941,115.157797 67.3170304,109.530868 C59.2904306,103.562913 53.3131754,97.0834181 49.3852648,90.0923846 C44.9450181,82.078273 43.9203458,74.0641615 46.3112479,66.0500499 C46.823584,64.3449198 47.4213095,62.8103027 48.1044244,61.4461986 Z" id="Shape"></path>
            </g>
            <g id="Group" transform="translate(164.000000, 380.000000)" fill="url(#linearGradient-4)" fill-rule="nonzero">
                <path d="M32.6625387,0.0110931782 L31.630547,0.0110931782 C26.2985896,-0.159002221 21.3966288,1.62699948 16.9246646,5.36909827 C12.7966976,8.94110166 9.27072583,14.0439637 6.34674923,20.6776842 C3.76676987,26.6310232 1.96078431,33.3497915 0.92879257,40.8339891 C-0.103199174,48.3181867 -0.275197798,55.887432 0.412796698,63.541725 C1.78878569,79.7007879 6.60474716,93.3934676 14.8606811,104.619764 C24.4926041,117.547014 37.9084967,126.051784 55.1083591,130.134074 L55.624355,130.134074 L57.1723426,130.64436 L57.9463364,130.64436 C76.6941864,134.216364 89.250086,130.729408 95.6140351,120.183493 C98.5380117,115.250726 100,108.957197 100,101.302904 C99.8280014,93.9888015 98.4520124,85.9943177 95.872033,77.3194523 C93.2920537,68.4744916 89.6800826,59.6295308 85.0361197,50.78457 C80.3921569,41.7695138 75.1461988,33.6049346 69.2982456,26.2908324 C63.1062951,18.6365394 56.9143447,12.5131051 50.7223942,7.92052926 C44.1864465,3.15785807 38.1664947,0.521379377 32.6625387,0.0110931782 M25.4385965,31.6488375 C28.1905745,24.1646399 31.7165463,20.5926365 36.0165119,20.9328273 L36.2745098,20.9328273 C40.5744754,21.4431135 45.6484348,25.8655939 51.496388,34.2002685 C57.3443412,42.5349431 61.7303062,51.2948562 64.6542828,60.4800078 C67.9222566,70.5156364 68.6102511,78.5101201 66.7182663,84.4634591 C64.4822841,90.7569889 58.9783282,93.3084199 50.2063983,92.1177521 L49.9484004,92.1177521 L49.6904025,91.862609 L48.9164087,91.862609 C40.3164775,90.161655 33.6945304,85.7391746 29.0505676,78.5951678 C25.0945992,72.1315427 22.8586171,64.3071543 22.3426213,55.1220027 C21.8266254,46.1069465 22.8586171,38.2825581 25.4385965,31.6488375 Z" id="Shape"></path>
            </g>
            <g id="Group" transform="translate(71.000000, 351.000000)" fill="url(#linearGradient-5)" fill-rule="nonzero">
                <path d="M63.5305615,5.83350896 C62.0060625,4.65331928 60.142786,3.64172813 57.940732,2.79873551 C55.738678,1.95574289 53.4519296,1.36564805 51.0804868,1.028451 C48.8784328,0.522655427 46.50699,0.185458377 43.9661584,0.0168598525 C36.6824413,-0.151738672 29.5681129,0.944151739 22.6231733,3.30453109 C15.8476225,5.49631191 10.3424874,8.78398314 6.10776818,13.1675448 C1.87304891,17.8883035 -0.159616342,23.1148577 0.00977242908,28.8472076 C0.1791612,35.085353 3.14346469,41.829294 8.90268289,49.0790306 C10.4271818,50.9336143 12.2904583,52.9567966 14.4925123,55.1485774 C16.1864,56.8345627 18.1343709,58.3519494 20.3364249,59.7007376 C22.0303126,60.7123288 23.8935891,61.6396207 25.9262544,62.4826133 C28.2976971,63.3256059 30.1609736,63.7471022 31.5160838,63.7471022 C37.6140795,64.5900948 43.5426865,63.3256059 49.3019047,59.9536354 C54.8917342,56.7502634 59.7193141,52.1981033 63.7846446,46.2971549 C68.0193639,40.227608 70.6448898,33.9894626 71.6612225,27.5827187 C72.6775551,20.5015806 71.4071393,14.6849315 67.8499751,10.1327713 C66.494865,8.44678609 65.0550604,7.01369863 63.5305615,5.83350896 M58.4488983,16.2023182 C59.9733973,18.2255005 60.3121748,20.9230769 59.465231,24.2950474 C58.7876759,27.4984194 57.2631769,30.7860906 54.8917342,34.1580611 C52.5202914,37.3614331 49.810071,39.890411 46.7610732,41.7449947 C43.5426865,43.768177 40.4089943,44.6111697 37.3599964,44.2739726 L34.5650817,43.768177 C33.548749,43.43098 32.6171108,42.9251844 31.7701669,42.2507903 C31.0926119,41.9135933 30.1609736,41.2391992 28.9752522,40.227608 C28.2976971,39.5532139 27.4507533,38.625922 26.4344207,37.4457323 C23.3854228,33.5679663 22.1997014,30.0273973 22.8772565,26.8240253 C23.216034,23.9578504 24.9946161,21.4288725 28.2130028,19.2370917 C31.0926119,17.2139094 34.5650817,15.6965227 38.6304122,14.6849315 C42.6957427,13.6733404 46.5916844,13.251844 50.3182373,13.4204426 L53.1131521,13.6733404 L55.3999005,14.1791359 C56.0774555,14.516333 56.6703162,14.85353 57.1784826,15.1907271 L58.4488983,16.2023182 Z" id="Shape"></path>
            </g>
            <g id="Group" transform="translate(186.000000, 0.000000)" fill="url(#linearGradient-6)" fill-rule="nonzero">
                <path d="M101.293248,98.5182097 C125.167077,98.5182097 148.358797,101.42738 170.868408,107.245722 C172.573682,96.4646775 173.255791,86.3681439 172.914736,76.9561211 C172.232627,58.4743308 167.628388,43.072839 159.102021,30.7516455 C150.064071,17.2325581 136.762937,7.99166301 119.19862,3.02896007 C115.276491,1.83106626 111.098571,0.975427819 106.66486,0.462044756 C102.74273,-0.0513383063 98.7353376,-0.13690215 94.6426811,0.205353225 C90.8910793,0.205353225 87.1394776,0.633172444 83.3878758,1.48881088 C80.1478561,2.17332163 76.5667817,3.2856516 72.6446525,4.82580079 C60.0256284,9.78850373 48.6002957,18.5160158 38.3686545,31.008337 C28.8191227,42.3027644 20.6338098,56.3352348 13.8127156,73.1057481 C8.18531296,86.7959631 3.58107442,101.42738 0,117 C32.2296698,104.678806 65.9940858,98.5182097 101.293248,98.5182097 Z" id="Path"></path>
            </g>
            <g id="Group" transform="translate(21.000000, 161.000000)" fill="url(#linearGradient-7)" fill-rule="nonzero">
                <path d="M1.75944032,31.2842889 C-1.87115082,47.8689892 0.117030044,63.9459947 7.72398292,79.5153053 C10.3172623,84.9307176 13.5156402,90.0922825 17.3191167,95 C29.4210871,65.8921585 47.3147149,39.6612549 71,16.307289 C69.6169177,15.2918992 67.8880647,14.1072777 65.8134412,12.7534247 C49.5622237,2.09183156 35.817843,-1.8851119 24.5802989,0.822594284 C21.8141343,1.49952083 19.2208549,2.68414229 16.8004608,4.37645865 C14.3800667,5.89954338 12.2190005,7.93032302 10.3172623,10.4687976 C8.2426388,13.1765037 6.51378587,16.1380574 5.13070353,19.3534585 C3.5747359,23.2457861 2.45098149,27.2227296 1.75944032,31.2842889 Z" id="Path"></path>
            </g>
            <rect id="Rectangle" x="0" y="0" width="512" height="512"></rect>
        </g>
    </g>
</svg>